<?xml version="1.0" encoding="UTF-8"?>
<svg viewBox="0 0 1200 800" xmlns="http://www.w3.org/2000/svg">
  <!-- Background -->
  <rect width="1200" height="800" fill="#f5f5f5"/>
  
  <!-- Wall -->
  <rect width="1200" height="800" fill="#e8e8e8"/>
  
  <!-- Shelf Unit -->
  <g id="shelf-unit">
    <!-- Shelf Frame -->
    <rect x="50" y="100" width="1100" height="600" fill="#d4af9f" stroke="#8b7355" stroke-width="3"/>
    
    <!-- Shelves (horizontal dividers) -->
    <line x1="50" y1="250" x2="1150" y2="250" stroke="#8b7355" stroke-width="4"/>
    <line x1="50" y1="400" x2="1150" y2="400" stroke="#8b7355" stroke-width="4"/>
    <line x1="50" y1="550" x2="1150" y2="550" stroke="#8b7355" stroke-width="4"/>
    
    <!-- Vertical dividers -->
    <line x1="200" y1="100" x2="200" y2="700" stroke="#8b7355" stroke-width="2"/>
    <line x1="350" y1="100" x2="350" y2="700" stroke="#8b7355" stroke-width="2"/>
    <line x1="500" y1="100" x2="500" y2="700" stroke="#8b7355" stroke-width="2"/>
    <line x1="650" y1="100" x2="650" y2="700" stroke="#8b7355" stroke-width="2"/>
    <line x1="800" y1="100" x2="800" y2="700" stroke="#8b7355" stroke-width="2"/>
    <line x1="950" y1="100" x2="950" y2="700" stroke="#8b7355" stroke-width="2"/>
  </g>
  
  <!-- Top Shelf - Row 1 (120-250) -->
  <!-- Medicine boxes - Top left -->
  <rect x="70" y="130" width="110" height="100" fill="#ff6b6b" stroke="#333" stroke-width="2"/>
  <text x="125" y="175" font-size="14" font-weight="bold" text-anchor="middle" fill="white">ASPIRIN</text>
  <text x="125" y="195" font-size="10" text-anchor="middle" fill="white">500mg</text>
  
  <rect x="70" y="140" width="110" height="15" fill="#ffffff" opacity="0.3"/>
  
  <!-- Medicine boxes -->
  <rect x="210" y="130" width="110" height="100" fill="#4ecdc4" stroke="#333" stroke-width="2"/>
  <text x="265" y="175" font-size="14" font-weight="bold" text-anchor="middle" fill="white">VITAMIN C</text>
  <text x="265" y="195" font-size="10" text-anchor="middle" fill="white">1000mg</text>
  
  <rect x="360" y="130" width="110" height="100" fill="#45b7d1" stroke="#333" stroke-width="2"/>
  <text x="415" y="175" font-size="14" font-weight="bold" text-anchor="middle" fill="white">IBUPROFEN</text>
  <text x="415" y="195" font-size="10" text-anchor="middle" fill="white">400mg</text>
  
  <rect x="510" y="130" width="110" height="100" fill="#96ceb4" stroke="#333" stroke-width="2"/>
  <text x="565" y="175" font-size="14" font-weight="bold" text-anchor="middle" fill="white">PARACETAMOL</text>
  <text x="565" y="195" font-size="10" text-anchor="middle" fill="white">500mg</text>
  
  <rect x="660" y="130" width="110" height="100" fill="#ffeaa7" stroke="#333" stroke-width="2"/>
  <text x="715" y="175" font-size="14" font-weight="bold" text-anchor="middle" fill="#333">AMOXICILLIN</text>
  <text x="715" y="195" font-size="10" text-anchor="middle" fill="#333">250mg</text>
  
  <rect x="810" y="130" width="110" height="100" fill="#dfe6e9" stroke="#333" stroke-width="2"/>
  <text x="865" y="175" font-size="14" font-weight="bold" text-anchor="middle" fill="#333">LORATADINE</text>
  <text x="865" y="195" font-size="10" text-anchor="middle" fill="#333">10mg</text>
  
  <rect x="960" y="130" width="110" height="100" fill="#fab1a0" stroke="#333" stroke-width="2"/>
  <text x="1015" y="175" font-size="14" font-weight="bold" text-anchor="middle" fill="white">OMEPRAZOLE</text>
  <text x="1015" y="195" font-size="10" text-anchor="middle" fill="white">20mg</text>
  
  <!-- Middle Shelf - Row 2 (250-400) -->
  <rect x="70" y="280" width="110" height="100" fill="#a29bfe" stroke="#333" stroke-width="2"/>
  <text x="125" y="325" font-size="14" font-weight="bold" text-anchor="middle" fill="white">METFORMIN</text>
  <text x="125" y="345" font-size="10" text-anchor="middle" fill="white">500mg</text>
  
  <rect x="210" y="280" width="110" height="100" fill="#74b9ff" stroke="#333" stroke-width="2"/>
  <text x="265" y="325" font-size="14" font-weight="bold" text-anchor="middle" fill="white">LISINOPRIL</text>
  <text x="265" y="345" font-size="10" text-anchor="middle" fill="white">10mg</text>
  
  <rect x="360" y="280" width="110" height="100" fill="#a29bfe" stroke="#333" stroke-width="2"/>
  <text x="415" y="325" font-size="14" font-weight="bold" text-anchor="middle" fill="white">ATORVASTATIN</text>
  <text x="415" y="345" font-size="10" text-anchor="middle" fill="white">20mg</text>
  
  <rect x="510" y="280" width="110" height="100" fill="#55efc4" stroke="#333" stroke-width="2"/>
  <text x="565" y="325" font-size="14" font-weight="bold" text-anchor="middle" fill="#333">SERTRALINE</text>
  <text x="565" y="345" font-size="10" text-anchor="middle" fill="#333">50mg</text>
  
  <rect x="660" y="280" width="110" height="100" fill="#fd79a8" stroke="#333" stroke-width="2"/>
  <text x="715" y="325" font-size="14" font-weight="bold" text-anchor="middle" fill="white">FLUOXETINE</text>
  <text x="715" y="345" font-size="10" text-anchor="middle" fill="white">20mg</text>
  
  <rect x="810" y="280" width="110" height="100" fill="#fdcb6e" stroke="#333" stroke-width="2"/>
  <text x="865" y="325" font-size="14" font-weight="bold" text-anchor="middle" fill="#333">CETIRIZINE</text>
  <text x="865" y="345" font-size="10" text-anchor="middle" fill="#333">10mg</text>
  
  <rect x="960" y="280" width="110" height="100" fill="#fab1a0" stroke="#333" stroke-width="2"/>
  <text x="1015" y="325" font-size="14" font-weight="bold" text-anchor="middle" fill="white">CLOPIDOGREL</text>
  <text x="1015" y="345" font-size="10" text-anchor="middle" fill="white">75mg</text>
  
  <!-- Bottom Shelf - Row 3 (400-550) -->
  <rect x="70" y="430" width="110" height="100" fill="#74b9ff" stroke="#333" stroke-width="2"/>
  <text x="125" y="475" font-size="14" font-weight="bold" text-anchor="middle" fill="white">AMLODIPINE</text>
  <text x="125" y="495" font-size="10" text-anchor="middle" fill="white">5mg</text>
  
  <rect x="210" y="430" width="110" height="100" fill="#81ecec" stroke="#333" stroke-width="2"/>
  <text x="265" y="475" font-size="14" font-weight="bold" text-anchor="middle" fill="#333">FOLIC ACID</text>
  <text x="265" y="495" font-size="10" text-anchor="middle" fill="#333">5mg</text>
  
  <rect x="360" y="430" width="110" height="100" fill="#ff7675" stroke="#333" stroke-width="2"/>
  <text x="415" y="475" font-size="14" font-weight="bold" text-anchor="middle" fill="white">DICLOFENAC</text>
  <text x="415" y="495" font-size="10" text-anchor="middle" fill="white">50mg</text>
  
  <rect x="510" y="430" width="110" height="100" fill="#fab1a0" stroke="#333" stroke-width="2"/>
  <text x="565" y="475" font-size="14" font-weight="bold" text-anchor="middle" fill="white">METOPROLOL</text>
  <text x="565" y="495" font-size="10" text-anchor="middle" fill="white">25mg</text>
  
  <rect x="660" y="430" width="110" height="100" fill="#ffeaa7" stroke="#333" stroke-width="2"/>
  <text x="715" y="475" font-size="14" font-weight="bold" text-anchor="middle" fill="#333">INSULIN</text>
  <text x="715" y="495" font-size="10" text-anchor="middle" fill="#333">100U/ml</text>
  
  <rect x="810" y="430" width="110" height="100" fill="#dfe6e9" stroke="#333" stroke-width="2"/>
  <text x="865" y="475" font-size="14" font-weight="bold" text-anchor="middle" fill="#333">WARFARIN</text>
  <text x="865" y="495" font-size="10" text-anchor="middle" fill="#333">5mg</text>
  
  <rect x="960" y="430" width="110" height="100" fill="#a29bfe" stroke="#333" stroke-width="2"/>
  <text x="1015" y="475" font-size="14" font-weight="bold" text-anchor="middle" fill="white">RANITIDINE</text>
  <text x="1015" y="495" font-size="10" text-anchor="middle" fill="white">150mg</text>
  
  <!-- Additional medicines on lower section -->
  <rect x="70" y="580" width="110" height="80" fill="#55efc4" stroke="#333" stroke-width="2"/>
  <text x="125" y="620" font-size="13" font-weight="bold" text-anchor="middle" fill="#333">SILDENAFIL</text>
  <text x="125" y="638" font-size="9" text-anchor="middle" fill="#333">50mg</text>
  
  <rect x="210" y="580" width="110" height="80" fill="#fd79a8" stroke="#333" stroke-width="2"/>
  <text x="265" y="620" font-size="13" font-weight="bold" text-anchor="middle" fill="white">LEVOTHYROXINE</text>
  <text x="265" y="638" font-size="9" text-anchor="middle" fill="white">75mcg</text>
  
  <rect x="360" y="580" width="110" height="80" fill="#fdcb6e" stroke="#333" stroke-width="2"/>
  <text x="415" y="620" font-size="13" font-weight="bold" text-anchor="middle" fill="#333">ENALAPRIL</text>
  <text x="415" y="638" font-size="9" text-anchor="middle" fill="#333">5mg</text>
  
  <rect x="510" y="580" width="110" height="80" fill="#00b894" stroke="#333" stroke-width="2"/>
  <text x="565" y="620" font-size="13" font-weight="bold" text-anchor="middle" fill="white">PHENYTOIN</text>
  <text x="565" y="638" font-size="9" text-anchor="middle" fill="white">100mg</text>
  
  <rect x="660" y="580" width="110" height="80" fill="#ff7675" stroke="#333" stroke-width="2"/>
  <text x="715" y="620" font-size="13" font-weight="bold" text-anchor="middle" fill="white">SALBUTAMOL</text>
  <text x="715" y="638" font-size="9" text-anchor="middle" fill="white">100mcg</text>
  
  <rect x="810" y="580" width="110" height="80" fill="#6c5ce7" stroke="#333" stroke-width="2"/>
  <text x="865" y="620" font-size="13" font-weight="bold" text-anchor="middle" fill="white">MORPHINE</text>
  <text x="865" y="638" font-size="9" text-anchor="middle" fill="white">10mg</text>
  
  <rect x="960" y="580" width="110" height="80" fill="#00cec9" stroke="#333" stroke-width="2"/>
  <text x="1015" y="620" font-size="13" font-weight="bold" text-anchor="middle" fill="#333">PENICILLIN</text>
  <text x="1015" y="638" font-size="9" text-anchor="middle" fill="#333">500mg</text>
  
  <!-- Shelf Label -->
  <text x="600" y="740" font-size="20" font-weight="bold" text-anchor="middle" fill="#333">Pharmacy Shelf - Medicines Display</text>
</svg>
